<svg xmlns="http://www.w3.org/2000/svg" width="375" viewBox="0 0 375 375" height="375" version="1.0"><defs><clipPath id="a"><path d="M 214 134.648438 L 230 134.648438 L 230 153 L 214 153 Z M 214 134.648438"/></clipPath><clipPath id="b"><path d="M 204 156 L 240.125 156 L 240.125 178 L 204 178 Z M 204 156"/></clipPath><clipPath id="c"><path d="M 129.648438 223 L 166 223 L 166 245.125 L 129.648438 245.125 Z M 129.648438 223"/></clipPath><clipPath id="d"><path d="M 171 184 L 240.125 184 L 240.125 245.125 L 171 245.125 Z M 171 184"/></clipPath><clipPath id="e"><path d="M 129.648438 134.648438 L 199 134.648438 L 199 196 L 129.648438 196 Z M 129.648438 134.648438"/></clipPath><clipPath id="f"><path d="M 170.464844 175.46875 L 199.710938 175.46875 L 199.710938 204.710938 L 170.464844 204.710938 Z M 170.464844 175.46875"/></clipPath></defs><path fill="#545454" d="M 183.589844 42.351562 C 98.351562 42.351562 29.25 108.539062 29.25 190.191406 C 29.25 271.84375 98.351562 338.03125 183.589844 338.03125 C 268.828125 338.03125 337.929688 271.84375 337.929688 190.191406 C 337.929688 108.539062 268.828125 42.351562 183.589844 42.351562"/><path fill="#03989E" d="M 184.492188 70.847656 C 118.542969 70.847656 65.082031 124.308594 65.082031 190.257812 C 65.082031 256.207031 118.542969 309.667969 184.492188 309.667969 C 250.441406 309.667969 303.902344 256.207031 303.902344 190.257812 C 303.902344 124.308594 250.441406 70.847656 184.492188 70.847656"/><path fill="#D9D9D9" d="M 184.527344 100.9375 C 135.179688 100.9375 95.175781 140.945312 95.175781 190.292969 C 95.175781 239.644531 135.179688 279.648438 184.527344 279.648438 C 233.878906 279.648438 273.882812 239.644531 273.882812 190.292969 C 273.882812 140.945312 233.878906 100.9375 184.527344 100.9375"/><g clip-path="url(#a)"><path fill="#FFF" d="M 229.445312 146.363281 L 229.445312 142.113281 C 229.445312 141.480469 229.363281 140.855469 229.199219 140.242188 C 229.039062 139.628906 228.796875 139.046875 228.480469 138.496094 C 228.164062 137.945312 227.78125 137.445312 227.335938 136.996094 C 226.886719 136.546875 226.386719 136.164062 225.839844 135.84375 C 225.289062 135.527344 224.710938 135.289062 224.097656 135.125 C 223.488281 134.960938 222.863281 134.878906 222.230469 134.878906 C 221.597656 134.878906 220.976562 134.960938 220.367188 135.125 C 219.753906 135.289062 219.175781 135.527344 218.625 135.84375 C 218.074219 136.160156 217.574219 136.542969 217.121094 136.992188 C 216.671875 137.441406 216.285156 137.941406 215.96875 138.492188 C 215.648438 139.042969 215.40625 139.625 215.242188 140.238281 C 215.078125 140.851562 214.996094 141.476562 214.996094 142.113281 L 214.996094 146.363281 C 214.996094 146.917969 215.070312 147.464844 215.214844 148.003906 C 215.359375 148.542969 215.570312 149.050781 215.847656 149.53125 C 216.125 150.015625 216.460938 150.453125 216.855469 150.84375 C 217.246094 151.238281 217.683594 151.574219 218.167969 151.851562 C 218.78125 152.207031 219.433594 152.480469 220.121094 152.664062 C 220.808594 152.847656 221.507812 152.9375 222.21875 152.9375 C 222.933594 152.9375 223.632812 152.847656 224.320312 152.664062 C 225.007812 152.480469 225.660156 152.207031 226.273438 151.851562 C 226.757812 151.578125 227.195312 151.242188 227.589844 150.847656 C 227.984375 150.457031 228.324219 150.019531 228.601562 149.535156 C 228.878906 149.054688 229.089844 148.542969 229.234375 148.007812 C 229.375 147.46875 229.445312 146.921875 229.445312 146.363281 Z M 229.445312 146.363281"/></g><g clip-path="url(#b)"><path fill="#545454" d="M 239.34375 177.761719 L 205.121094 177.761719 C 204.90625 177.761719 204.722656 177.683594 204.570312 177.53125 C 204.417969 177.378906 204.339844 177.195312 204.339844 176.980469 L 204.339844 173.925781 C 204.339844 173.339844 204.367188 172.753906 204.425781 172.171875 C 204.484375 171.589844 204.570312 171.007812 204.683594 170.433594 C 204.796875 169.859375 204.941406 169.292969 205.109375 168.730469 C 205.28125 168.171875 205.476562 167.621094 205.703125 167.078125 C 205.925781 166.535156 206.175781 166.007812 206.453125 165.492188 C 206.730469 164.972656 207.03125 164.472656 207.355469 163.984375 C 207.679688 163.496094 208.03125 163.027344 208.402344 162.574219 C 208.773438 162.121094 209.167969 161.6875 209.582031 161.273438 C 209.996094 160.859375 210.429688 160.464844 210.882812 160.09375 C 211.335938 159.722656 211.804688 159.375 212.292969 159.046875 C 212.777344 158.722656 213.28125 158.421875 213.796875 158.144531 C 214.316406 157.871094 214.84375 157.621094 215.386719 157.394531 C 215.925781 157.171875 216.476562 156.972656 217.039062 156.804688 C 217.597656 156.632812 218.167969 156.492188 218.742188 156.375 C 219.316406 156.261719 219.894531 156.175781 220.476562 156.117188 C 221.0625 156.0625 221.644531 156.03125 222.230469 156.03125 C 222.816406 156.03125 223.402344 156.0625 223.984375 156.117188 C 224.570312 156.175781 225.148438 156.261719 225.722656 156.375 C 226.296875 156.492188 226.863281 156.632812 227.425781 156.804688 C 227.988281 156.972656 228.539062 157.171875 229.078125 157.394531 C 229.621094 157.621094 230.148438 157.871094 230.667969 158.144531 C 231.183594 158.421875 231.683594 158.722656 232.171875 159.046875 C 232.660156 159.375 233.128906 159.722656 233.582031 160.09375 C 234.035156 160.464844 234.46875 160.859375 234.882812 161.273438 C 235.296875 161.6875 235.691406 162.121094 236.0625 162.574219 C 236.433594 163.027344 236.78125 163.496094 237.109375 163.984375 C 237.433594 164.472656 237.734375 164.972656 238.011719 165.492188 C 238.289062 166.007812 238.539062 166.535156 238.761719 167.078125 C 238.988281 167.621094 239.183594 168.171875 239.355469 168.730469 C 239.523438 169.292969 239.664062 169.859375 239.78125 170.433594 C 239.894531 171.007812 239.980469 171.589844 240.039062 172.171875 C 240.09375 172.753906 240.125 173.339844 240.125 173.925781 L 240.125 177.070312 C 240.101562 177.269531 240.015625 177.433594 239.867188 177.566406 C 239.714844 177.695312 239.542969 177.761719 239.34375 177.761719 Z M 239.34375 177.761719"/></g><path fill="#FFF" d="M 155.003906 213.75 L 155.003906 209.480469 C 155.003906 208.84375 154.921875 208.21875 154.757812 207.605469 C 154.59375 206.988281 154.351562 206.40625 154.03125 205.855469 C 153.714844 205.304688 153.328125 204.808594 152.878906 204.359375 C 152.429688 203.910156 151.929688 203.527344 151.375 203.207031 C 150.828125 202.890625 150.25 202.652344 149.636719 202.488281 C 149.027344 202.324219 148.402344 202.242188 147.769531 202.242188 C 147.136719 202.242188 146.515625 202.324219 145.902344 202.488281 C 145.292969 202.652344 144.714844 202.890625 144.164062 203.207031 C 143.617188 203.527344 143.117188 203.914062 142.671875 204.363281 C 142.222656 204.8125 141.839844 205.3125 141.523438 205.863281 C 141.207031 206.414062 140.96875 206.996094 140.804688 207.609375 C 140.640625 208.21875 140.558594 208.84375 140.558594 209.480469 L 140.558594 213.75 C 140.554688 214.304688 140.625 214.847656 140.761719 215.382812 C 140.902344 215.917969 141.105469 216.425781 141.378906 216.910156 C 141.648438 217.390625 141.980469 217.828125 142.367188 218.222656 C 142.753906 218.617188 143.183594 218.957031 143.660156 219.242188 C 144.277344 219.597656 144.925781 219.867188 145.613281 220.050781 C 146.300781 220.234375 147 220.328125 147.714844 220.328125 C 148.425781 220.328125 149.125 220.234375 149.8125 220.050781 C 150.5 219.867188 151.152344 219.597656 151.765625 219.242188 C 152.253906 218.964844 152.695312 218.632812 153.09375 218.238281 C 153.496094 217.847656 153.835938 217.410156 154.121094 216.929688 C 154.40625 216.445312 154.621094 215.9375 154.773438 215.398438 C 154.921875 214.859375 155 214.308594 155.003906 213.75 Z M 155.003906 213.75"/><g clip-path="url(#c)"><path fill="#545454" d="M 164.882812 245.125 L 130.660156 245.125 C 130.445312 245.125 130.261719 245.046875 130.109375 244.894531 C 129.953125 244.742188 129.878906 244.558594 129.878906 244.34375 L 129.878906 241.199219 C 129.878906 240.613281 129.90625 240.027344 129.964844 239.445312 C 130.023438 238.859375 130.109375 238.28125 130.222656 237.707031 C 130.335938 237.132812 130.480469 236.566406 130.648438 236.003906 C 130.820312 235.441406 131.015625 234.890625 131.242188 234.351562 C 131.464844 233.808594 131.714844 233.28125 131.992188 232.761719 C 132.269531 232.246094 132.570312 231.746094 132.894531 231.257812 C 133.21875 230.769531 133.566406 230.300781 133.941406 229.847656 C 134.3125 229.394531 134.703125 228.960938 135.121094 228.546875 C 135.535156 228.132812 135.96875 227.738281 136.421875 227.367188 C 136.875 226.996094 137.34375 226.644531 137.832031 226.320312 C 138.316406 225.996094 138.820312 225.695312 139.335938 225.417969 C 139.851562 225.140625 140.382812 224.890625 140.921875 224.667969 C 141.464844 224.441406 142.015625 224.246094 142.578125 224.074219 C 143.136719 223.90625 143.707031 223.765625 144.28125 223.648438 C 144.855469 223.535156 145.433594 223.449219 146.015625 223.390625 C 146.601562 223.335938 147.183594 223.304688 147.769531 223.304688 C 148.355469 223.304688 148.941406 223.335938 149.523438 223.390625 C 150.109375 223.449219 150.6875 223.535156 151.261719 223.648438 C 151.835938 223.765625 152.402344 223.90625 152.964844 224.074219 C 153.523438 224.246094 154.078125 224.441406 154.617188 224.667969 C 155.160156 224.890625 155.6875 225.140625 156.203125 225.417969 C 156.722656 225.695312 157.222656 225.996094 157.710938 226.320312 C 158.199219 226.644531 158.667969 226.996094 159.121094 227.367188 C 159.574219 227.738281 160.007812 228.132812 160.421875 228.546875 C 160.835938 228.960938 161.230469 229.394531 161.601562 229.847656 C 161.972656 230.300781 162.320312 230.769531 162.648438 231.257812 C 162.972656 231.746094 163.273438 232.246094 163.550781 232.761719 C 163.824219 233.28125 164.078125 233.808594 164.300781 234.351562 C 164.523438 234.890625 164.722656 235.441406 164.890625 236.003906 C 165.0625 236.566406 165.203125 237.132812 165.320312 237.707031 C 165.433594 238.28125 165.519531 238.859375 165.578125 239.445312 C 165.632812 240.027344 165.664062 240.613281 165.664062 241.199219 L 165.664062 244.34375 C 165.664062 244.558594 165.585938 244.742188 165.433594 244.894531 C 165.28125 245.046875 165.097656 245.125 164.882812 245.125 Z M 164.882812 245.125"/></g><g clip-path="url(#d)"><path fill="#03989E" d="M 175.675781 245.125 L 193.890625 245.125 C 219.453125 245.125 240.125 233.640625 240.125 208.078125 L 240.125 187.40625 C 240.1875 186.910156 240.097656 186.445312 239.855469 186.007812 C 239.613281 185.570312 239.261719 185.246094 238.808594 185.035156 C 238.355469 184.824219 237.882812 184.769531 237.394531 184.867188 C 236.902344 184.964844 236.488281 185.199219 236.152344 185.570312 L 212.816406 205.503906 C 212.589844 205.707031 212.4375 205.953125 212.363281 206.246094 C 212.289062 206.539062 212.304688 206.828125 212.40625 207.113281 C 212.511719 207.398438 212.6875 207.628906 212.933594 207.804688 C 213.179688 207.980469 213.453125 208.070312 213.757812 208.078125 L 220.648438 208.078125 C 220.648438 222.777344 208.679688 227.851562 193.980469 227.851562 L 182.039062 227.851562 C 176.386719 227.851562 171.816406 230.148438 171.816406 235.777344 L 171.816406 241.265625 C 171.816406 241.777344 171.914062 242.269531 172.113281 242.742188 C 172.308594 243.214844 172.585938 243.632812 172.949219 243.996094 C 173.308594 244.355469 173.726562 244.636719 174.199219 244.832031 C 174.671875 245.027344 175.164062 245.125 175.675781 245.125 Z M 175.675781 245.125"/></g><g clip-path="url(#e)"><path fill="#03989E" d="M 194.328125 134.878906 L 176.113281 134.878906 C 150.550781 134.878906 129.878906 146.363281 129.878906 171.925781 L 129.878906 192.597656 C 129.816406 193.09375 129.90625 193.5625 130.148438 194 C 130.390625 194.4375 130.738281 194.757812 131.195312 194.96875 C 131.648438 195.179688 132.121094 195.234375 132.609375 195.136719 C 133.101562 195.039062 133.515625 194.804688 133.851562 194.433594 L 157.1875 174.546875 C 157.414062 174.34375 157.566406 174.097656 157.640625 173.804688 C 157.714844 173.511719 157.699219 173.222656 157.597656 172.9375 C 157.492188 172.652344 157.316406 172.421875 157.070312 172.246094 C 156.824219 172.070312 156.546875 171.980469 156.246094 171.972656 L 149.355469 171.972656 C 149.355469 157.273438 161.320312 152.199219 176.019531 152.199219 L 187.871094 152.199219 C 193.523438 152.199219 198.09375 149.902344 198.09375 144.273438 L 198.09375 138.738281 C 198.09375 138.234375 198 137.75 197.808594 137.28125 C 197.617188 136.816406 197.347656 136.402344 196.996094 136.042969 C 196.644531 135.679688 196.238281 135.402344 195.773438 135.199219 C 195.3125 135 194.828125 134.890625 194.328125 134.878906 Z M 194.328125 134.878906"/></g><g clip-path="url(#f)"><path fill="#7ED957" d="M 185.089844 175.46875 C 177.011719 175.46875 170.464844 182.015625 170.464844 190.089844 C 170.464844 198.164062 177.011719 204.710938 185.089844 204.710938 C 193.164062 204.710938 199.710938 198.164062 199.710938 190.089844 C 199.710938 182.015625 193.164062 175.46875 185.089844 175.46875 Z M 194.535156 187.117188 L 184.050781 197.605469 C 183.835938 197.820312 183.484375 197.820312 183.273438 197.605469 L 181.722656 196.039062 C 181.507812 195.824219 181.160156 195.472656 180.949219 195.257812 L 177.339844 191.464844 C 177.234375 191.359375 177.179688 191.210938 177.179688 191.066406 C 177.179688 190.925781 177.234375 190.789062 177.339844 190.683594 L 178.921875 189.257812 C 179.027344 189.148438 179.171875 189.097656 179.3125 189.097656 C 179.453125 189.097656 179.589844 189.152344 179.695312 189.257812 L 183.273438 192.910156 C 183.488281 193.125 183.835938 193.125 184.050781 192.910156 L 192.210938 184.769531 C 192.425781 184.550781 192.773438 184.550781 192.988281 184.769531 L 194.539062 186.332031 C 194.75 186.546875 194.75 186.902344 194.535156 187.117188 Z M 194.535156 187.117188"/></g></svg>