<svg width="0" height="0" class="hidden">
  <symbol xmlns="http://www.w3.org/2000/svg" viewBox="0 0 16 16" id="arrow">
    <path d="M 5.7148438 3 L 5 3.6992188 L 9.65625 8.4414062 L 5 13.185547 L 5.7148438 13.884766 L 11.058594 8.4414062 L 5.7148438 3 z " color="#000" enable-background="accumulate" font-family="sans-serif" font-weight="400" overflow="visible"></path>
  </symbol>
  <symbol xmlns="http://www.w3.org/2000/svg" viewBox="0 0 200 200" id="cart">
    <path d="M75,71.09v-10c0-14.28,11.15-25.93,25-25.93s25,11.65,25,25.93v10h17.28A3.13,3.13,0,0,1,145.4,74l5.94,87.5a3.14,3.14,0,0,1-2.91,3.33H51.78a3.12,3.12,0,0,1-3.12-3.12v-.21L54.6,74a3.13,3.13,0,0,1,3.12-2.92Zm9.38,0h31.25v-10c0-9.19-7-16.56-15.63-16.56S84.38,51.9,84.38,61.09ZM58.47,155.47h83.06l-5.08-75H63.56Z"></path>
  </symbol>
  <symbol xmlns="http://www.w3.org/2000/svg" viewBox="0 0 48 48" id="cart-bold">
    <path d="M14 36c-2.21 0-3.98 1.79-3.98 4s1.77 4 3.98 4 4-1.79 4-4-1.79-4-4-4zm-12-32v4h4l7.19 15.17-2.7 4.9c-.31.58-.49 1.23-.49 1.93 0 2.21 1.79 4 4 4h24v-4h-23.15c-.28 0-.5-.22-.5-.5 0-.09.02-.17.06-.24l1.79-3.26h14.9c1.5 0 2.81-.83 3.5-2.06l7.15-12.98c.16-.28.25-.61.25-.96 0-1.11-.9-2-2-2h-29.57l-1.9-4h-6.53zm32 32c-2.21 0-3.98 1.79-3.98 4s1.77 4 3.98 4 4-1.79 4-4-1.79-4-4-4z"></path>
    <path fill="none" d="M0 0h48v48h-48z"></path>
  </symbol>
  <symbol xmlns="http://www.w3.org/2000/svg" viewBox="0 0 16 16" id="cart-thin">
    <path fill="#444" d="M14 13.1V12H4.6l.6-1.1 9.2-.9L16 4H3.7L3 1H0v1h2.2l2.1 8.4L3 13v1.5c0 .8.7 1.5 1.5 1.5S6 15.3 6 14.5 5.3 13 4.5 13H12v1.5c0 .8.7 1.5 1.5 1.5s1.5-.7 1.5-1.5c0-.7-.4-1.2-1-1.4zM4 5h10.7l-1.1 4-8.4.9L4 5z"></path>
  </symbol>
  <symbol xmlns="http://www.w3.org/2000/svg" id="delivery" version="1.1" viewBox="0 0 32 32">
    <g id="layer1" transform="translate(0 -1020.362)">
      <path id="path21318" fill="#000" fill-opacity="1" fill-rule="nonzero" stroke="none" stroke-dasharray="none" stroke-dashoffset="0" stroke-linecap="round" stroke-linejoin="round" stroke-miterlimit="4" stroke-opacity="1" stroke-width="1" d="M5 1027.362c-1.099 0-2 .9-2 2v7.5a.5.5 0 1 0 1 0v-7.5c0-.563.438-1 1-1h15c.563 0 1 .437 1 1v10c0 .563-.437 1-1 1h-6.5a.5.5 0 1 0 0 1H20c1.1 0 2-.9 2-2v-8h4.164c.418 0 .635.123.842.33.164.164.302.406.434.67h-3.932a.5.5 0 1 0 0 1H24v3.66c0 .735.608 1.34 1.342 1.34H30v1.5h-.8a.5.5 0 1 0 0 1h.8v.5c0 .563-.437 1-1 1h-2a2.758 2.758 0 0 0-2.75-2.75 2.758 2.758 0 0 0-2.75 2.75h-9a2.758 2.758 0 0 0-2.75-2.75 2.758 2.758 0 0 0-2.75 2.75H4.5a.488.488 0 0 1-.5-.5v-.5h1.493a.5.5 0 1 0 0-1H1.5a.5.5 0 1 0 0 1H3v.5c0 .823.678 1.5 1.5 1.5h2.696a2.757 2.757 0 0 0 2.554 1.75c1.16 0 2.152-.73 2.555-1.75h9.39a2.757 2.757 0 0 0 2.555 1.75c1.16 0 2.152-.73 2.555-1.75H29c1.1 0 2-.9 2-2v-.922a.5.5 0 0 0 0-.16v-2.418a.5.5 0 0 0-.045-.205l-2.5-5.502c-.172-.38-.382-.81-.742-1.17a2.165 2.165 0 0 0-1.549-.623H22v-1c0-1.1-.9-2-2-2H5zm7.5 3c-2.203 0-4 1.797-4 4 0 2.203 1.797 4 4 4 2.204 0 4-1.797 4-4 0-2.203-1.796-4-4-4zm0 1c1.663 0 3 1.337 3 3s-1.337 3-3 3c-1.662 0-3-1.337-3-3s1.338-3 3-3zm-.008.694a.5.5 0 0 0-.492.507v1.8a.5.5 0 0 0 .254.435l1.367.773a.5.5 0 0 0 .493-.87l-1.114-.63v-1.508a.5.5 0 0 0-.507-.507zM25 1033.362h2.907l1.816 4h-4.38a.329.329 0 0 1-.343-.34v-3.66zm-22.55 5a.5.5 0 0 0 .05 1h4a.5.5 0 1 0 0-1h-4a.5.5 0 0 0-.05 0zm7.3 2.25c.973 0 1.75.778 1.75 1.75 0 .973-.777 1.75-1.75 1.75-.972 0-1.75-.777-1.75-1.75 0-.972.778-1.75 1.75-1.75zm14.5 0c.973 0 1.75.778 1.75 1.75 0 .973-.777 1.75-1.75 1.75-.972 0-1.75-.777-1.75-1.75 0-.972.778-1.75 1.75-1.75zm-14.5 1a.75.75 0 0 0-.75.75.75.75 0 0 0 .75.75.75.75 0 0 0 .75-.75.75.75 0 0 0-.75-.75zm14.5 0a.75.75 0 0 0-.75.75.75.75 0 0 0 .75.75.75.75 0 0 0 .75-.75.75.75 0 0 0-.75-.75z" baseline-shift="baseline" clip-rule="nonzero" color="#000" color-interpolation="sRGB" color-interpolation-filters="linearRGB" color-rendering="auto" direction="ltr" display="inline" font-family="sans-serif" font-size="medium" font-stretch="normal" font-style="normal" font-variant="normal" font-weight="normal" image-rendering="auto" letter-spacing="normal" opacity="1" overflow="visible" paint-order="fill markers stroke" shape-rendering="auto" text-anchor="start" text-decoration="none" text-rendering="auto" visibility="visible" word-spacing="normal" writing-mode="lr-tb"></path>
    </g>
  </symbol>
  <symbol xmlns="http://www.w3.org/2000/svg" viewBox="0 0 16 16" id="gmail">
    <path d="M14.5 2h-13A1.5 1.5 0 0 0 0 3.5v9A1.5 1.5 0 0 0 1.5 14h13a1.5 1.5 0 0 0 1.5-1.5v-9A1.5 1.5 0 0 0 14.5 2zm-1.766 1L8 6.738 3.266 3h9.468zM2 13V4.646l6 4.615 6-4.616V13H2z"></path>
  </symbol>
  <symbol xmlns="http://www.w3.org/2000/svg" version="1.0" viewBox="0 0 375 375" id="logo">
    <defs>
      <clipPath id="a">
        <path d="M 224 118 L 292.914062 118 L 292.914062 160 L 224 160 Z M 224 118"></path>
      </clipPath>
      <clipPath id="b">
        <path d="M 82.164062 246 L 151 246 L 151 288.378906 L 82.164062 288.378906 Z M 82.164062 246"></path>
      </clipPath>
      <clipPath id="c">
        <path d="M 162 173 L 292.914062 173 L 292.914062 288.378906 L 162 288.378906 Z M 162 173"></path>
      </clipPath>
      <clipPath id="d">
        <path d="M 82.164062 78 L 213 78 L 213 194 L 82.164062 194 Z M 82.164062 78"></path>
      </clipPath>
    </defs>
    <path fill="#545454" d="M 184.714844 15.609375 C 88.203125 15.609375 9.964844 90.488281 9.964844 182.859375 C 9.964844 275.226562 88.203125 350.109375 184.714844 350.109375 C 281.226562 350.109375 359.464844 275.226562 359.464844 182.859375 C 359.464844 90.488281 281.226562 15.609375 184.714844 15.609375"></path>
    <path fill="#FFF" d="M 272.542969 99.976562 L 272.542969 91.871094 C 272.542969 90.660156 272.390625 89.46875 272.078125 88.296875 C 271.765625 87.128906 271.308594 86.019531 270.703125 84.96875 C 270.101562 83.917969 269.371094 82.964844 268.515625 82.105469 C 267.660156 81.25 266.710938 80.515625 265.664062 79.910156 C 264.617188 79.304688 263.511719 78.847656 262.34375 78.535156 C 261.179688 78.222656 259.992188 78.066406 258.785156 78.066406 C 257.578125 78.066406 256.390625 78.222656 255.222656 78.535156 C 254.058594 78.847656 252.949219 79.304688 251.90625 79.910156 C 250.851562 80.511719 249.894531 81.242188 249.035156 82.097656 C 248.175781 82.953125 247.441406 83.90625 246.832031 84.957031 C 246.226562 86.007812 245.765625 87.117188 245.449219 88.292969 C 245.136719 89.464844 244.980469 90.65625 244.980469 91.871094 L 244.980469 99.976562 C 244.984375 101.039062 245.121094 102.082031 245.394531 103.105469 C 245.667969 104.132812 246.070312 105.101562 246.601562 106.023438 C 247.132812 106.941406 247.773438 107.777344 248.523438 108.527344 C 249.273438 109.277344 250.109375 109.917969 251.027344 110.449219 C 252.203125 111.125 253.449219 111.640625 254.757812 111.992188 C 256.070312 112.34375 257.40625 112.519531 258.761719 112.519531 C 260.121094 112.519531 261.453125 112.34375 262.765625 111.992188 C 264.078125 111.640625 265.320312 111.125 266.496094 110.449219 C 267.417969 109.921875 268.253906 109.28125 269.007812 108.53125 C 269.761719 107.785156 270.402344 106.949219 270.933594 106.027344 C 271.464844 105.109375 271.867188 104.136719 272.140625 103.109375 C 272.414062 102.082031 272.546875 101.039062 272.542969 99.976562 Z M 272.542969 99.976562"></path>
    <g clip-path="url(#a)">
      <path fill="#D9D9D9" d="M 291.425781 159.871094 L 226.140625 159.871094 C 225.945312 159.871094 225.753906 159.832031 225.570312 159.757812 C 225.390625 159.683594 225.226562 159.574219 225.089844 159.433594 C 224.949219 159.296875 224.839844 159.132812 224.765625 158.953125 C 224.691406 158.769531 224.652344 158.578125 224.652344 158.382812 L 224.652344 152.554688 C 224.652344 151.4375 224.707031 150.320312 224.816406 149.207031 C 224.925781 148.097656 225.089844 146.992188 225.308594 145.894531 C 225.527344 144.800781 225.796875 143.714844 226.121094 142.644531 C 226.445312 141.578125 226.824219 140.523438 227.25 139.492188 C 227.679688 138.460938 228.15625 137.449219 228.683594 136.464844 C 229.210938 135.480469 229.785156 134.519531 230.40625 133.589844 C 231.027344 132.660156 231.691406 131.765625 232.398438 130.902344 C 233.109375 130.035156 233.859375 129.210938 234.648438 128.417969 C 235.441406 127.628906 236.265625 126.878906 237.132812 126.167969 C 237.996094 125.460938 238.890625 124.796875 239.820312 124.175781 C 240.75 123.554688 241.707031 122.980469 242.695312 122.453125 C 243.679688 121.925781 244.691406 121.449219 245.722656 121.019531 C 246.753906 120.59375 247.804688 120.214844 248.875 119.890625 C 249.945312 119.566406 251.027344 119.296875 252.125 119.078125 C 253.222656 118.859375 254.328125 118.695312 255.4375 118.585938 C 256.550781 118.476562 257.667969 118.421875 258.785156 118.421875 C 259.902344 118.421875 261.015625 118.476562 262.128906 118.585938 C 263.242188 118.695312 264.347656 118.859375 265.441406 119.078125 C 266.539062 119.296875 267.621094 119.566406 268.691406 119.890625 C 269.761719 120.214844 270.8125 120.59375 271.847656 121.019531 C 272.878906 121.449219 273.886719 121.925781 274.875 122.453125 C 275.859375 122.980469 276.816406 123.554688 277.746094 124.175781 C 278.675781 124.796875 279.574219 125.460938 280.4375 126.167969 C 281.300781 126.878906 282.128906 127.628906 282.917969 128.417969 C 283.710938 129.210938 284.460938 130.035156 285.167969 130.902344 C 285.878906 131.765625 286.542969 132.660156 287.164062 133.589844 C 287.785156 134.519531 288.359375 135.480469 288.886719 136.464844 C 289.414062 137.449219 289.890625 138.460938 290.316406 139.492188 C 290.746094 140.523438 291.121094 141.578125 291.445312 142.644531 C 291.769531 143.714844 292.042969 144.800781 292.261719 145.894531 C 292.476562 146.992188 292.640625 148.097656 292.75 149.207031 C 292.859375 150.320312 292.917969 151.4375 292.917969 152.554688 L 292.917969 158.558594 C 292.894531 158.738281 292.839844 158.910156 292.757812 159.074219 C 292.671875 159.234375 292.558594 159.378906 292.421875 159.5 C 292.285156 159.621094 292.128906 159.710938 291.957031 159.777344 C 291.785156 159.839844 291.609375 159.871094 291.425781 159.871094 Z M 291.425781 159.871094"></path>
    </g>
    <path fill="#FFF" d="M 130.539062 228.53125 L 130.539062 220.378906 C 130.539062 219.167969 130.378906 217.972656 130.066406 216.800781 C 129.75 215.632812 129.289062 214.519531 128.679688 213.46875 C 128.074219 212.421875 127.339844 211.464844 126.480469 210.609375 C 125.621094 209.753906 124.667969 209.023438 123.613281 208.417969 C 122.570312 207.816406 121.464844 207.355469 120.296875 207.042969 C 119.128906 206.730469 117.945312 206.574219 116.734375 206.574219 C 115.527344 206.574219 114.339844 206.730469 113.175781 207.042969 C 112.007812 207.355469 110.902344 207.816406 109.855469 208.417969 C 108.8125 209.027344 107.859375 209.761719 107.007812 210.621094 C 106.152344 211.476562 105.425781 212.429688 104.820312 213.480469 C 104.21875 214.53125 103.761719 215.640625 103.449219 216.808594 C 103.136719 217.980469 102.976562 219.167969 102.976562 220.378906 L 102.976562 228.53125 C 102.972656 229.585938 103.101562 230.621094 103.367188 231.644531 C 103.628906 232.664062 104.023438 233.632812 104.542969 234.550781 C 105.058594 235.472656 105.6875 236.308594 106.425781 237.0625 C 107.164062 237.816406 107.984375 238.460938 108.894531 239 C 110.070312 239.679688 111.3125 240.195312 112.625 240.546875 C 113.933594 240.898438 115.269531 241.074219 116.625 241.074219 C 117.984375 241.074219 119.316406 240.898438 120.628906 240.546875 C 121.941406 240.195312 123.183594 239.679688 124.359375 239 C 125.289062 238.476562 126.132812 237.839844 126.894531 237.089844 C 127.65625 236.34375 128.308594 235.511719 128.847656 234.589844 C 129.390625 233.671875 129.804688 232.699219 130.089844 231.671875 C 130.378906 230.644531 130.527344 229.597656 130.539062 228.53125 Z M 130.539062 228.53125"></path>
    <g clip-path="url(#b)">
      <path fill="#D9D9D9" d="M 149.378906 288.378906 L 84.09375 288.378906 C 83.894531 288.378906 83.707031 288.34375 83.523438 288.265625 C 83.339844 288.191406 83.179688 288.082031 83.039062 287.945312 C 82.902344 287.804688 82.792969 287.644531 82.71875 287.460938 C 82.640625 287.277344 82.605469 287.089844 82.605469 286.890625 L 82.605469 280.886719 C 82.605469 279.769531 82.660156 278.65625 82.769531 277.542969 C 82.878906 276.429688 83.042969 275.324219 83.261719 274.230469 C 83.476562 273.132812 83.75 272.050781 84.074219 270.980469 C 84.398438 269.910156 84.773438 268.859375 85.203125 267.828125 C 85.628906 266.792969 86.109375 265.785156 86.632812 264.796875 C 87.160156 263.8125 87.734375 262.855469 88.355469 261.925781 C 88.976562 260.996094 89.640625 260.097656 90.351562 259.234375 C 91.0625 258.371094 91.8125 257.542969 92.601562 256.753906 C 93.390625 255.964844 94.21875 255.214844 95.082031 254.503906 C 95.945312 253.792969 96.84375 253.128906 97.773438 252.507812 C 98.703125 251.886719 99.660156 251.3125 100.644531 250.785156 C 101.632812 250.257812 102.640625 249.78125 103.675781 249.355469 C 104.707031 248.925781 105.757812 248.550781 106.828125 248.226562 C 107.898438 247.902344 108.980469 247.628906 110.078125 247.414062 C 111.171875 247.195312 112.277344 247.03125 113.390625 246.921875 C 114.503906 246.8125 115.617188 246.757812 116.734375 246.757812 C 117.855469 246.757812 118.96875 246.8125 120.082031 246.921875 C 121.195312 247.03125 122.296875 247.195312 123.394531 247.414062 C 124.492188 247.628906 125.574219 247.902344 126.644531 248.226562 C 127.714844 248.550781 128.765625 248.925781 129.796875 249.355469 C 130.832031 249.78125 131.839844 250.257812 132.824219 250.785156 C 133.8125 251.3125 134.769531 251.886719 135.699219 252.507812 C 136.628906 253.128906 137.523438 253.792969 138.390625 254.503906 C 139.253906 255.214844 140.082031 255.960938 140.871094 256.753906 C 141.660156 257.542969 142.410156 258.371094 143.121094 259.234375 C 143.828125 260.097656 144.496094 260.996094 145.117188 261.925781 C 145.738281 262.855469 146.3125 263.8125 146.835938 264.796875 C 147.363281 265.785156 147.84375 266.792969 148.269531 267.828125 C 148.699219 268.859375 149.074219 269.910156 149.398438 270.980469 C 149.722656 272.050781 149.992188 273.132812 150.210938 274.230469 C 150.429688 275.324219 150.59375 276.429688 150.703125 277.542969 C 150.8125 278.65625 150.867188 279.769531 150.867188 280.886719 L 150.867188 286.890625 C 150.867188 287.089844 150.828125 287.277344 150.753906 287.460938 C 150.679688 287.644531 150.570312 287.804688 150.429688 287.945312 C 150.292969 288.082031 150.128906 288.191406 149.949219 288.265625 C 149.765625 288.34375 149.574219 288.378906 149.378906 288.378906 Z M 149.378906 288.378906"></path>
    </g>
    <g clip-path="url(#c)">
      <path fill="#03989E" d="M 169.972656 288.378906 L 204.714844 288.378906 C 253.484375 288.378906 292.914062 266.472656 292.914062 217.707031 L 292.914062 178.273438 C 292.972656 177.8125 292.960938 177.351562 292.871094 176.898438 C 292.785156 176.441406 292.625 176.007812 292.402344 175.601562 C 292.175781 175.195312 291.890625 174.832031 291.550781 174.515625 C 291.210938 174.199219 290.828125 173.945312 290.40625 173.75 C 289.984375 173.554688 289.542969 173.429688 289.082031 173.375 C 288.621094 173.320312 288.160156 173.339844 287.707031 173.429688 C 287.25 173.523438 286.820312 173.683594 286.414062 173.910156 C 286.007812 174.140625 285.648438 174.425781 285.335938 174.769531 L 240.820312 212.800781 C 240.386719 213.183594 240.097656 213.652344 239.957031 214.214844 C 239.8125 214.773438 239.84375 215.324219 240.039062 215.867188 C 240.238281 216.410156 240.574219 216.847656 241.042969 217.183594 C 241.515625 217.519531 242.039062 217.695312 242.617188 217.707031 L 255.761719 217.707031 C 255.761719 245.75 232.933594 255.433594 204.890625 255.433594 L 182.109375 255.433594 C 171.328125 255.433594 162.609375 259.8125 162.609375 270.546875 L 162.609375 281.019531 C 162.609375 281.503906 162.65625 281.980469 162.75 282.457031 C 162.847656 282.929688 162.984375 283.390625 163.171875 283.835938 C 163.355469 284.28125 163.582031 284.707031 163.851562 285.109375 C 164.121094 285.511719 164.425781 285.882812 164.765625 286.226562 C 165.109375 286.566406 165.480469 286.871094 165.882812 287.140625 C 166.285156 287.410156 166.707031 287.636719 167.152344 287.820312 C 167.601562 288.003906 168.0625 288.144531 168.535156 288.238281 C 169.007812 288.332031 169.488281 288.378906 169.972656 288.378906 Z M 169.972656 288.378906"></path>
    </g>
    <g clip-path="url(#d)">
      <path fill="#03989E" d="M 205.550781 78.070312 L 170.804688 78.070312 C 122.039062 78.070312 82.605469 99.976562 82.605469 148.742188 L 82.605469 188.175781 C 82.546875 188.636719 82.5625 189.097656 82.648438 189.550781 C 82.738281 190.007812 82.894531 190.441406 83.121094 190.847656 C 83.34375 191.253906 83.628906 191.617188 83.96875 191.933594 C 84.308594 192.25 84.691406 192.503906 85.113281 192.699219 C 85.535156 192.894531 85.976562 193.019531 86.4375 193.074219 C 86.898438 193.128906 87.359375 193.109375 87.816406 193.019531 C 88.269531 192.925781 88.699219 192.765625 89.105469 192.539062 C 89.511719 192.308594 89.871094 192.023438 90.183594 191.679688 L 134.699219 153.738281 C 135.132812 153.355469 135.421875 152.882812 135.5625 152.324219 C 135.707031 151.761719 135.679688 151.210938 135.480469 150.667969 C 135.28125 150.125 134.945312 149.6875 134.476562 149.351562 C 134.003906 149.015625 133.480469 148.839844 132.902344 148.828125 L 119.757812 148.828125 C 119.757812 120.789062 142.585938 111.105469 170.628906 111.105469 L 193.238281 111.105469 C 204.015625 111.105469 212.734375 106.722656 212.734375 95.988281 L 212.734375 85.429688 C 212.734375 84.953125 212.6875 84.480469 212.597656 84.015625 C 212.507812 83.546875 212.371094 83.09375 212.191406 82.652344 C 212.011719 82.210938 211.792969 81.792969 211.53125 81.394531 C 211.269531 80.996094 210.972656 80.625 210.640625 80.285156 C 210.308594 79.945312 209.945312 79.640625 209.554688 79.371094 C 209.164062 79.097656 208.75 78.867188 208.3125 78.679688 C 207.875 78.488281 207.425781 78.34375 206.960938 78.238281 C 206.496094 78.136719 206.023438 78.078125 205.550781 78.070312 Z M 205.550781 78.070312"></path>
    </g>
    <g fill="#D9D9D9">
      <g>
        <g>
          <path d="M 59.765625 -47.484375 C 59.765625 -46.648438 59.492188 -44.644531 58.953125 -41.46875 C 58.421875 -38.300781 57.835938 -34.914062 57.203125 -31.3125 C 54.960938 -18.78125 53.84375 -11.34375 53.84375 -9 C 53.84375 -7.09375 54 -5.503906 54.3125 -4.234375 C 54.632812 -2.972656 55.160156 -1.851562 55.890625 -0.875 C 53.453125 0.976562 50.867188 1.90625 48.140625 1.90625 C 44.085938 1.90625 40.890625 0.832031 38.546875 -1.3125 C 36.210938 -3.457031 34.046875 -7.492188 32.046875 -13.421875 C 30.046875 -19.347656 27.609375 -28.773438 24.734375 -41.703125 L 24.0625 -41.703125 L 22.234375 -30.796875 C 20.046875 -18.609375 18.953125 -11.316406 18.953125 -8.921875 C 18.953125 -7.023438 19.109375 -5.453125 19.421875 -4.203125 C 19.742188 -2.960938 20.242188 -1.851562 20.921875 -0.875 C 18.484375 0.976562 15.921875 1.90625 13.234375 1.90625 C 10.609375 1.90625 8.707031 1.25 7.53125 -0.0625 C 6.363281 -1.382812 5.78125 -3.507812 5.78125 -6.4375 C 5.78125 -8.875 6.117188 -12.503906 6.796875 -17.328125 C 7.484375 -22.160156 8.800781 -30.429688 10.75 -42.140625 L 7.53125 -48.65625 C 12.164062 -51.625 16.335938 -53.109375 20.046875 -53.109375 L 20.1875 -53.109375 C 23.695312 -53.054688 26.460938 -52.101562 28.484375 -50.25 C 30.515625 -48.40625 32.394531 -44.847656 34.125 -39.578125 C 35.851562 -34.304688 38.035156 -25.84375 40.671875 -14.1875 L 41.265625 -14.1875 C 41.742188 -18.09375 43.226562 -27.4375 45.71875 -42.21875 L 42.875 -48.71875 C 45.019531 -50.132812 47.140625 -51.234375 49.234375 -52.015625 C 51.328125 -52.796875 53.253906 -53.1875 55.015625 -53.1875 C 58.179688 -53.1875 59.765625 -51.285156 59.765625 -47.484375 Z M 59.765625 -47.484375" transform="translate(155.307 212.25)"></path>
        </g>
      </g>
    </g>
    <g fill="#FFF">
      <g>
        <g>
          <path d="M 26.046875 -30.59375 C 28.128906 -30.59375 29.941406 -30.28125 31.484375 -29.65625 C 33.035156 -29.03125 34.21875 -28.171875 35.03125 -27.078125 C 35.84375 -25.992188 36.25 -24.75 36.25 -23.34375 C 36.25 -22.539062 36.140625 -21.800781 35.921875 -21.125 C 35.035156 -18.03125 32.476562 -16.070312 28.25 -15.25 C 29.71875 -14.820312 30.878906 -14.109375 31.734375 -13.109375 C 32.597656 -12.117188 33.03125 -10.890625 33.03125 -9.421875 C 33.03125 -8.742188 32.90625 -7.945312 32.65625 -7.03125 C 31.988281 -4.644531 30.632812 -2.875 28.59375 -1.71875 C 26.5625 -0.570312 23.675781 0 19.9375 0 L 0.828125 0 C 0.179688 0 -0.3125 -0.101562 -0.65625 -0.3125 C -1.007812 -0.53125 -1.1875 -0.820312 -1.1875 -1.1875 C -1.1875 -1.375 -1.144531 -1.578125 -1.0625 -1.796875 C -0.9375 -2.128906 -0.734375 -2.382812 -0.453125 -2.5625 C -0.179688 -2.75 -0.015625 -2.859375 0.046875 -2.890625 C 0.535156 -3.203125 0.929688 -3.515625 1.234375 -3.828125 C 1.546875 -4.148438 1.804688 -4.679688 2.015625 -5.421875 L 7.625 -25.21875 C 7.75 -25.613281 7.8125 -26 7.8125 -26.375 C 7.8125 -26.707031 7.753906 -26.988281 7.640625 -27.21875 C 7.535156 -27.445312 7.394531 -27.710938 7.21875 -28.015625 C 6.9375 -28.421875 6.796875 -28.742188 6.796875 -28.984375 C 6.796875 -29.078125 6.828125 -29.242188 6.890625 -29.484375 C 7.015625 -29.890625 7.28125 -30.175781 7.6875 -30.34375 C 8.101562 -30.507812 8.738281 -30.59375 9.59375 -30.59375 Z M 23.984375 -22.1875 C 24.191406 -22.863281 24.296875 -23.492188 24.296875 -24.078125 C 24.296875 -25.660156 23.394531 -26.453125 21.59375 -26.453125 L 19.53125 -26.453125 L 17.09375 -17.875 L 19.109375 -17.875 C 20.398438 -17.875 21.421875 -18.1875 22.171875 -18.8125 C 22.921875 -19.4375 23.523438 -20.5625 23.984375 -22.1875 Z M 20.625 -8.6875 C 20.84375 -9.414062 20.953125 -10.085938 20.953125 -10.703125 C 20.953125 -12.359375 20 -13.1875 18.09375 -13.1875 L 15.796875 -13.1875 L 13.1875 -4.140625 L 15.53125 -4.140625 C 16.84375 -4.140625 17.894531 -4.46875 18.6875 -5.125 C 19.488281 -5.78125 20.132812 -6.96875 20.625 -8.6875 Z M 20.625 -8.6875" transform="translate(-33.903 326.269)"></path>
        </g>
      </g>
    </g>
    <g fill="#FFF">
      <g>
        <g>
          <path d="M 17.78125 -24.296875 C 21.945312 -24.296875 25.015625 -23.453125 26.984375 -21.765625 C 28.960938 -20.085938 29.953125 -17.882812 29.953125 -15.15625 C 29.953125 -14.238281 29.828125 -13.210938 29.578125 -12.078125 C 29.003906 -9.566406 27.921875 -7.367188 26.328125 -5.484375 C 24.734375 -3.609375 22.78125 -2.15625 20.46875 -1.125 C 18.15625 -0.101562 15.648438 0.40625 12.953125 0.40625 C 8.691406 0.40625 5.539062 -0.441406 3.5 -2.140625 C 1.46875 -3.835938 0.453125 -6.09375 0.453125 -8.90625 C 0.453125 -9.863281 0.578125 -10.921875 0.828125 -12.078125 C 1.410156 -14.472656 2.519531 -16.59375 4.15625 -18.4375 C 5.789062 -20.289062 7.796875 -21.726562 10.171875 -22.75 C 12.546875 -23.78125 15.082031 -24.296875 17.78125 -24.296875 Z M 17.640625 -20.21875 C 16.992188 -20.21875 16.3125 -19.640625 15.59375 -18.484375 C 14.875 -17.335938 14.023438 -15.171875 13.046875 -11.984375 C 12.066406 -8.804688 11.578125 -6.570312 11.578125 -5.28125 C 11.578125 -4.601562 11.679688 -4.148438 11.890625 -3.921875 C 12.109375 -3.691406 12.398438 -3.578125 12.765625 -3.578125 C 13.410156 -3.515625 14.078125 -4.066406 14.765625 -5.234375 C 15.453125 -6.398438 16.316406 -8.664062 17.359375 -12.03125 C 18.304688 -15 18.78125 -17.160156 18.78125 -18.515625 C 18.78125 -19.160156 18.679688 -19.601562 18.484375 -19.84375 C 18.285156 -20.09375 18.003906 -20.21875 17.640625 -20.21875 Z M 17.640625 -20.21875" transform="translate(3.212 326.269)"></path>
        </g>
      </g>
    </g>
    <g fill="#FFF">
      <g>
        <g>
          <path d="M 17.78125 -24.296875 C 21.945312 -24.296875 25.015625 -23.453125 26.984375 -21.765625 C 28.960938 -20.085938 29.953125 -17.882812 29.953125 -15.15625 C 29.953125 -14.238281 29.828125 -13.210938 29.578125 -12.078125 C 29.003906 -9.566406 27.921875 -7.367188 26.328125 -5.484375 C 24.734375 -3.609375 22.78125 -2.15625 20.46875 -1.125 C 18.15625 -0.101562 15.648438 0.40625 12.953125 0.40625 C 8.691406 0.40625 5.539062 -0.441406 3.5 -2.140625 C 1.46875 -3.835938 0.453125 -6.09375 0.453125 -8.90625 C 0.453125 -9.863281 0.578125 -10.921875 0.828125 -12.078125 C 1.410156 -14.472656 2.519531 -16.59375 4.15625 -18.4375 C 5.789062 -20.289062 7.796875 -21.726562 10.171875 -22.75 C 12.546875 -23.78125 15.082031 -24.296875 17.78125 -24.296875 Z M 17.640625 -20.21875 C 16.992188 -20.21875 16.3125 -19.640625 15.59375 -18.484375 C 14.875 -17.335938 14.023438 -15.171875 13.046875 -11.984375 C 12.066406 -8.804688 11.578125 -6.570312 11.578125 -5.28125 C 11.578125 -4.601562 11.679688 -4.148438 11.890625 -3.921875 C 12.109375 -3.691406 12.398438 -3.578125 12.765625 -3.578125 C 13.410156 -3.515625 14.078125 -4.066406 14.765625 -5.234375 C 15.453125 -6.398438 16.316406 -8.664062 17.359375 -12.03125 C 18.304688 -15 18.78125 -17.160156 18.78125 -18.515625 C 18.78125 -19.160156 18.679688 -19.601562 18.484375 -19.84375 C 18.285156 -20.09375 18.003906 -20.21875 17.640625 -20.21875 Z M 17.640625 -20.21875" transform="translate(35.504 326.269)"></path>
        </g>
      </g>
    </g>
    <g fill="#FFF">
      <g>
        <g>
          <path d="M 3.3125 -6.46875 C 3.945312 -6.46875 4.425781 -6.296875 4.75 -5.953125 C 5.070312 -5.609375 5.21875 -5.148438 5.1875 -4.578125 L 4.34375 -4.578125 C 4.363281 -4.984375 4.265625 -5.296875 4.046875 -5.515625 C 3.835938 -5.734375 3.535156 -5.84375 3.140625 -5.84375 C 2.742188 -5.84375 2.421875 -5.734375 2.171875 -5.515625 C 1.929688 -5.304688 1.8125 -5.023438 1.8125 -4.671875 C 1.8125 -4.398438 1.898438 -4.1875 2.078125 -4.03125 C 2.265625 -3.882812 2.566406 -3.765625 2.984375 -3.671875 C 3.585938 -3.515625 4.035156 -3.300781 4.328125 -3.03125 C 4.617188 -2.757812 4.765625 -2.390625 4.765625 -1.921875 C 4.765625 -1.304688 4.523438 -0.8125 4.046875 -0.4375 C 3.566406 -0.0625 2.960938 0.125 2.234375 0.125 C 1.566406 0.125 1.039062 -0.046875 0.65625 -0.390625 C 0.28125 -0.734375 0.113281 -1.203125 0.15625 -1.796875 L 1 -1.796875 C 1.019531 -1.378906 1.144531 -1.054688 1.375 -0.828125 C 1.613281 -0.609375 1.941406 -0.5 2.359375 -0.5 C 2.796875 -0.5 3.160156 -0.613281 3.453125 -0.84375 C 3.742188 -1.070312 3.890625 -1.382812 3.890625 -1.78125 C 3.890625 -2.082031 3.785156 -2.316406 3.578125 -2.484375 C 3.367188 -2.660156 3.023438 -2.8125 2.546875 -2.9375 C 2.023438 -3.0625 1.625 -3.238281 1.34375 -3.46875 C 1.0625 -3.707031 0.921875 -4.023438 0.921875 -4.421875 C 0.921875 -5.046875 1.148438 -5.539062 1.609375 -5.90625 C 2.066406 -6.28125 2.632812 -6.46875 3.3125 -6.46875 Z M 3.3125 -6.46875" transform="translate(7.448 348.552)"></path>
        </g>
      </g>
    </g>
    <g fill="#FFF">
      <g>
        <g>
          <path d="M 1.796875 -6.46875 C 1.929688 -6.46875 2.035156 -6.425781 2.109375 -6.34375 C 2.191406 -6.269531 2.234375 -6.171875 2.234375 -6.046875 C 2.234375 -5.878906 2.175781 -5.738281 2.0625 -5.625 C 1.945312 -5.507812 1.804688 -5.453125 1.640625 -5.453125 C 1.503906 -5.453125 1.394531 -5.492188 1.3125 -5.578125 C 1.238281 -5.660156 1.203125 -5.757812 1.203125 -5.875 C 1.203125 -6.039062 1.257812 -6.179688 1.375 -6.296875 C 1.488281 -6.410156 1.628906 -6.46875 1.796875 -6.46875 Z M 1.046875 0 L 0.25 0 L 1.125 -4.875 L 1.90625 -4.875 Z M 1.046875 0" transform="translate(13.483 348.552)"></path>
        </g>
      </g>
    </g>
    <g fill="#FFF">
      <g>
        <g>
          <path d="M 3.5 -5 C 3.976562 -5 4.34375 -4.890625 4.59375 -4.671875 C 4.851562 -4.453125 4.984375 -4.144531 4.984375 -3.75 C 4.984375 -3.5 4.945312 -3.160156 4.875 -2.734375 L 4.375 0 L 3.578125 0 L 4.0625 -2.6875 C 4.132812 -3.0625 4.171875 -3.34375 4.171875 -3.53125 C 4.171875 -4.113281 3.851562 -4.394531 3.21875 -4.375 C 2.28125 -4.351562 1.679688 -3.609375 1.421875 -2.140625 L 1.046875 0 L 0.25 0 L 1.109375 -4.875 L 1.90625 -4.875 L 1.75 -4.03125 L 2.15625 -4.59375 C 2.550781 -4.863281 3 -5 3.5 -5 Z M 3.5 -5" transform="translate(16.478 348.552)"></path>
        </g>
      </g>
    </g>
    <g fill="#FFF">
      <g>
        <g>
          <path d="M 3.015625 -5 C 3.585938 -5 4.015625 -4.84375 4.296875 -4.53125 C 4.578125 -4.21875 4.722656 -3.785156 4.734375 -3.234375 L 3.90625 -3.234375 C 3.863281 -4.003906 3.515625 -4.390625 2.859375 -4.390625 C 2.359375 -4.390625 1.9375 -4.148438 1.59375 -3.671875 C 1.257812 -3.191406 1.09375 -2.570312 1.09375 -1.8125 C 1.09375 -1.363281 1.191406 -1.03125 1.390625 -0.8125 C 1.585938 -0.59375 1.84375 -0.484375 2.15625 -0.484375 C 2.851562 -0.484375 3.347656 -0.835938 3.640625 -1.546875 L 4.46875 -1.546875 C 4.226562 -0.984375 3.910156 -0.5625 3.515625 -0.28125 C 3.128906 -0.0078125 2.640625 0.125 2.046875 0.125 C 1.503906 0.125 1.066406 -0.0351562 0.734375 -0.359375 C 0.398438 -0.691406 0.234375 -1.171875 0.234375 -1.796875 C 0.234375 -2.347656 0.332031 -2.863281 0.53125 -3.34375 C 0.738281 -3.820312 1.054688 -4.21875 1.484375 -4.53125 C 1.921875 -4.84375 2.429688 -5 3.015625 -5 Z M 3.015625 -5" transform="translate(22.788 348.552)"></path>
        </g>
      </g>
    </g>
    <g fill="#FFF">
      <g>
        <g>
          <path d="M 4.625 -2.203125 L 1.109375 -2.203125 C 1.097656 -2.023438 1.09375 -1.894531 1.09375 -1.8125 C 1.09375 -1.363281 1.191406 -1.03125 1.390625 -0.8125 C 1.585938 -0.59375 1.859375 -0.484375 2.203125 -0.484375 C 2.523438 -0.484375 2.816406 -0.578125 3.078125 -0.765625 C 3.347656 -0.960938 3.535156 -1.234375 3.640625 -1.578125 L 4.46875 -1.578125 C 4.28125 -1.015625 3.960938 -0.585938 3.515625 -0.296875 C 3.078125 -0.015625 2.59375 0.125 2.0625 0.125 C 1.5 0.125 1.050781 -0.0390625 0.71875 -0.375 C 0.394531 -0.707031 0.234375 -1.175781 0.234375 -1.78125 C 0.234375 -2.15625 0.285156 -2.519531 0.390625 -2.875 C 0.492188 -3.238281 0.644531 -3.582031 0.84375 -3.90625 C 1.050781 -4.238281 1.332031 -4.503906 1.6875 -4.703125 C 2.050781 -4.898438 2.46875 -5 2.9375 -5 C 3.5 -5 3.945312 -4.832031 4.28125 -4.5 C 4.613281 -4.175781 4.78125 -3.738281 4.78125 -3.1875 C 4.78125 -2.84375 4.726562 -2.515625 4.625 -2.203125 Z M 2.828125 -4.390625 C 2.378906 -4.390625 2.023438 -4.238281 1.765625 -3.9375 C 1.503906 -3.644531 1.316406 -3.265625 1.203125 -2.796875 L 3.953125 -2.796875 C 3.972656 -2.960938 3.984375 -3.078125 3.984375 -3.140625 C 3.984375 -3.535156 3.878906 -3.84375 3.671875 -4.0625 C 3.460938 -4.28125 3.179688 -4.390625 2.828125 -4.390625 Z M 2.828125 -4.390625" transform="translate(28.511 348.552)"></path>
        </g>
      </g>
    </g>
    <g fill="#FFF">
      <g>
        <g>
          <path d="M 1.390625 -0.640625 L 4.484375 -0.640625 L 4.375 0 L 0.125 0 L 0.203125 -0.453125 L 2.90625 -2.796875 C 3.445312 -3.265625 3.820312 -3.644531 4.03125 -3.9375 C 4.25 -4.238281 4.359375 -4.5625 4.359375 -4.90625 C 4.359375 -5.53125 4.039062 -5.84375 3.40625 -5.84375 C 3 -5.84375 2.664062 -5.726562 2.40625 -5.5 C 2.15625 -5.28125 1.972656 -4.929688 1.859375 -4.453125 L 1.84375 -4.359375 L 1.046875 -4.359375 L 1.0625 -4.453125 C 1.394531 -5.796875 2.242188 -6.46875 3.609375 -6.46875 C 4.148438 -6.46875 4.5625 -6.332031 4.84375 -6.0625 C 5.125 -5.789062 5.265625 -5.4375 5.265625 -5 C 5.265625 -4.601562 5.113281 -4.195312 4.8125 -3.78125 C 4.507812 -3.363281 3.988281 -2.84375 3.25 -2.21875 Z M 1.390625 -0.640625" transform="translate(36.953 348.552)"></path>
        </g>
      </g>
    </g>
    <g fill="#FFF">
      <g>
        <g>
          <path d="M 3 -6.46875 C 3.6875 -6.46875 4.203125 -6.25 4.546875 -5.8125 C 4.890625 -5.375 5.0625 -4.800781 5.0625 -4.09375 C 5.0625 -3.726562 5.03125 -3.363281 4.96875 -3 C 4.914062 -2.632812 4.820312 -2.257812 4.6875 -1.875 C 4.5625 -1.488281 4.394531 -1.148438 4.1875 -0.859375 C 3.988281 -0.578125 3.722656 -0.34375 3.390625 -0.15625 C 3.066406 0.03125 2.707031 0.125 2.3125 0.125 C 1.625 0.125 1.109375 -0.09375 0.765625 -0.53125 C 0.421875 -0.96875 0.25 -1.546875 0.25 -2.265625 C 0.25 -2.617188 0.273438 -2.976562 0.328125 -3.34375 C 0.378906 -3.707031 0.472656 -4.078125 0.609375 -4.453125 C 0.742188 -4.835938 0.910156 -5.175781 1.109375 -5.46875 C 1.316406 -5.757812 1.582031 -6 1.90625 -6.1875 C 2.226562 -6.375 2.59375 -6.46875 3 -6.46875 Z M 2.328125 -0.5 C 2.671875 -0.5 2.972656 -0.628906 3.234375 -0.890625 C 3.492188 -1.160156 3.6875 -1.5 3.8125 -1.90625 C 3.9375 -2.3125 4.03125 -2.695312 4.09375 -3.0625 C 4.15625 -3.425781 4.1875 -3.765625 4.1875 -4.078125 C 4.1875 -4.617188 4.085938 -5.046875 3.890625 -5.359375 C 3.691406 -5.679688 3.390625 -5.84375 2.984375 -5.84375 C 2.640625 -5.84375 2.335938 -5.707031 2.078125 -5.4375 C 1.816406 -5.175781 1.617188 -4.84375 1.484375 -4.4375 C 1.359375 -4.039062 1.265625 -3.65625 1.203125 -3.28125 C 1.148438 -2.914062 1.125 -2.578125 1.125 -2.265625 C 1.125 -1.722656 1.222656 -1.289062 1.421875 -0.96875 C 1.617188 -0.65625 1.921875 -0.5 2.328125 -0.5 Z M 2.328125 -0.5" transform="translate(43.126 348.552)"></path>
        </g>
      </g>
    </g>
    <g fill="#FFF">
      <g>
        <g>
          <path d="M 4.265625 -6.34375 L 3.140625 0 L 2.359375 0 L 3.328125 -5.515625 L 1.390625 -4.46875 L 1.546875 -5.296875 L 3.03125 -6.140625 C 3.269531 -6.273438 3.507812 -6.34375 3.75 -6.34375 Z M 4.265625 -6.34375" transform="translate(49.299 348.552)"></path>
        </g>
      </g>
    </g>
    <g fill="#FFF">
      <g>
        <g>
          <path d="M 1.390625 -0.640625 L 4.484375 -0.640625 L 4.375 0 L 0.125 0 L 0.203125 -0.453125 L 2.90625 -2.796875 C 3.445312 -3.265625 3.820312 -3.644531 4.03125 -3.9375 C 4.25 -4.238281 4.359375 -4.5625 4.359375 -4.90625 C 4.359375 -5.53125 4.039062 -5.84375 3.40625 -5.84375 C 3 -5.84375 2.664062 -5.726562 2.40625 -5.5 C 2.15625 -5.28125 1.972656 -4.929688 1.859375 -4.453125 L 1.84375 -4.359375 L 1.046875 -4.359375 L 1.0625 -4.453125 C 1.394531 -5.796875 2.242188 -6.46875 3.609375 -6.46875 C 4.148438 -6.46875 4.5625 -6.332031 4.84375 -6.0625 C 5.125 -5.789062 5.265625 -5.4375 5.265625 -5 C 5.265625 -4.601562 5.113281 -4.195312 4.8125 -3.78125 C 4.507812 -3.363281 3.988281 -2.84375 3.25 -2.21875 Z M 1.390625 -0.640625" transform="translate(55.472 348.552)"></path>
        </g>
      </g>
    </g>
  </symbol>
  <symbol xmlns="http://www.w3.org/2000/svg" viewBox="0 0 16.933 16.933" id="menu">
    <path d="m 12.271329,281.39001 h -0.0423 -10.2445898 c -1.10065995,-0.0423 -1.10065995,1.62982 0,1.58749 H 12.229029 c 1.07949,0.0423 1.12182,-1.58749 0.0423,-1.58749 z m -10.2869098,6.34996 c -1.05832995,0 -1.05832995,1.58748 0,1.58748 h 5.79962 c 1.0795,0 1.0795,-1.58748 0,-1.58748 z m 0,6.34995 c -1.05832995,0 -1.05832995,1.58749 0,1.58749 H 14.980649 c 1.05832,0 1.05832,-1.58749 0,-1.58749 z" transform="translate(0 -280.067)"></path>
  </symbol>
  <symbol xmlns="http://www.w3.org/2000/svg" viewBox="0 0 48 48" id="order">
    <path fill-rule="evenodd" d="M 24 0 C 10.751089 0 0 10.7511 0 24 C 0 37.2489 10.751089 48 24 48 C 37.248912 48 48 37.2489 48 24 C 48 10.7511 37.248912 0 24 0 z M 24 1 C 36.708472 1 47 11.2915 47 24 C 47 36.7085 36.708472 47 24 47 C 11.291529 47 1 36.7085 1 24 C 1 11.2915 11.291529 1 24 1 z M 12.474609 13 A 0.50064427 0.50064427 0 0 0 12.525391 14 L 15.109375 14 L 18.033203 29.59375 A 0.50005 0.50005 0 0 0 18.525391 30 L 19.611328 30 L 23.525391 30 L 33.603516 30 A 0.50004997 0.50004997 0 0 0 33.617188 30 A 0.50004997 0.50004997 0 0 0 33.667969 30 L 33.830078 30 C 34.526418 30 35.017578 30.4709 35.017578 31 C 35.017578 31.5291 34.526418 32 33.830078 32 L 18.423828 32 A 0.50005 0.50005 0 1 0 18.423828 33 L 21.517578 33 L 31.517578 33 L 33.830078 33 C 35.003488 33 36.017578 32.1329 36.017578 31 C 36.017578 29.9876 35.206985 29.191903 34.197266 29.033203 L 36.011719 17.580078 A 0.50004997 0.50004997 0 0 0 35.517578 17.001953 L 16.689453 17.001953 L 16.015625 13.408203 A 0.50005 0.50005 0 0 0 15.525391 13 L 12.525391 13 A 0.50005 0.50005 0 0 0 12.474609 13 z M 31.517578 33 C 30.695074 33 30.017585 33.6775 30.017578 34.5 C 30.017585 35.3225 30.695074 36 31.517578 36 C 32.340083 36 33.017571 35.3225 33.017578 34.5 C 33.017571 33.6775 32.340083 33 31.517578 33 z M 21.517578 33 C 20.695073 33 20.017585 33.6775 20.017578 34.5 C 20.017585 35.3225 20.695073 36 21.517578 36 C 22.340082 36 23.017571 35.3225 23.017578 34.5 C 23.017571 33.6775 22.340082 33 21.517578 33 z M 16.876953 18.001953 L 20.058594 18.001953 L 20.224609 20 L 17.251953 20 L 16.876953 18.001953 z M 21.060547 18.001953 L 24.017578 18.001953 L 24.017578 20 L 21.226562 20 L 21.060547 18.001953 z M 25.017578 18.001953 L 27.017578 18.001953 L 27.017578 20 L 25.017578 20 L 25.017578 18.001953 z M 28.017578 18.001953 L 30.974609 18.001953 L 30.808594 20 L 28.017578 20 L 28.017578 18.001953 z M 31.976562 18.001953 L 34.931641 18.001953 L 34.615234 20 L 31.810547 20 L 31.976562 18.001953 z M 17.439453 21 L 20.308594 21 L 20.474609 23 L 17.814453 23 L 17.439453 21 z M 21.310547 21 L 24.017578 21 L 24.017578 23 L 21.476562 23 L 21.310547 21 z M 25.017578 21 L 27.017578 21 L 27.017578 23 L 25.017578 23 L 25.017578 21 z M 28.017578 21 L 30.724609 21 L 30.558594 23 L 28.017578 23 L 28.017578 21 z M 31.726562 21 L 34.457031 21 L 34.140625 23 L 31.560547 23 L 31.726562 21 z M 18.001953 24 L 20.558594 24 L 20.724609 26 L 18.376953 26 L 18.001953 24 z M 21.560547 24 L 24.017578 24 L 24.017578 26 L 21.726562 26 L 21.560547 24 z M 25.017578 24 L 27.017578 24 L 27.017578 26 L 25.017578 26 L 25.017578 24 z M 28.017578 24 L 30.474609 24 L 30.308594 26 L 28.017578 26 L 28.017578 24 z M 31.476562 24 L 33.982422 24 L 33.666016 26 L 31.310547 26 L 31.476562 24 z M 18.564453 27 L 20.806641 27 L 20.974609 29 L 19.560547 29 L 18.939453 29 L 18.564453 27 z M 21.810547 27 L 24.017578 27 L 24.017578 29 L 23.560547 29 L 23.525391 29 L 21.976562 29 L 21.810547 27 z M 25.017578 27 L 27.017578 27 L 27.017578 29 L 25.017578 29 L 25.017578 27 z M 28.017578 27 L 30.224609 27 L 30.058594 29 L 28.017578 29 L 28.017578 27 z M 31.228516 27 L 33.507812 27 L 33.189453 29 L 31.060547 29 L 31.228516 27 z M 21.517578 34 C 21.799645 34 22.017576 34.218 22.017578 34.5 C 22.017576 34.7821 21.799645 35 21.517578 35 C 21.23551 35 21.01758 34.7821 21.017578 34.5 C 21.01758 34.218 21.23551 34 21.517578 34 z M 31.517578 34 C 31.799646 34 32.017576 34.218 32.017578 34.5 C 32.017576 34.7821 31.799646 35 31.517578 35 C 31.235511 35 31.01758 34.7821 31.017578 34.5 C 31.01758 34.218 31.235511 34 31.517578 34 z " color="#000" font-family="sans-serif" font-weight="400" overflow="visible"></path>
  </symbol>
  <symbol xmlns="http://www.w3.org/2000/svg" enable-background="new 0 0 64 64" viewBox="0 0 64 64" id="return-package">
    <path fill="#231f20" d="M56.2,9H7.8C6.3,9,5,10.3,5,11.8v6.3C5,19.7,6.3,21,7.8,21H9v31.1c0,1.6,1.3,2.9,2.9,2.9h40.3
			c1.6,0,2.9-1.3,2.9-2.9V21h1.2c1.6,0,2.8-1.3,2.8-2.8v-6.3C59,10.3,57.7,9,56.2,9z M53,52.1c0,0.5-0.4,0.9-0.9,0.9H11.9
			c-0.5,0-0.9-0.4-0.9-0.9V21h42V52.1z M57,18.2c0,0.5-0.4,0.8-0.8,0.8H54H10H7.8C7.4,19,7,18.6,7,18.2v-6.3C7,11.4,7.4,11,7.8,11
			h48.3c0.5,0,0.8,0.4,0.8,0.8V18.2z"></path>
    <path fill="#231f20" d="M20.9,33.2l6.9,4.4c0.6,0.4,1.3,0.4,2,0.1c0.6-0.4,1.1-1,1.1-1.8v-1.3h4.4c1.6,0,2.9,1.4,2.9,3.2
			c0,1.7-1.3,3.2-2.9,3.2h-5.8c-1.6,0-2.9,1.4-2.9,3.1s1.3,3.1,2.9,3.1h5.8c4.8,0,8.8-4.2,8.8-9.3c0-5.1-3.9-9.3-8.8-9.3h-4.4V27
			c0-0.8-0.4-1.5-1.1-1.8c-0.6-0.3-1.4-0.3-2,0.1l-6.9,4.4c-0.6,0.4-0.9,1-0.9,1.7S20.3,32.8,20.9,33.2z M22,31.4l6.8-4.4v2.3
			c0,0.6,0.4,1,1,1h5.4c3.7,0,6.8,3.3,6.8,7.3S39,45,35.2,45h-5.8c-0.5,0-0.9-0.5-0.9-1.1s0.4-1.1,0.9-1.1h5.8
			c2.7,0,4.9-2.3,4.9-5.2s-2.2-5.2-4.9-5.2h-5.4c-0.6,0-1,0.4-1,1l0.1,2.4L22,31.5C22,31.5,22,31.4,22,31.4z"></path>
  </symbol>
  <symbol xmlns="http://www.w3.org/2000/svg" viewBox="0 0 24 24" id="search">
    <path fill="none" d="M0 0h24v24H0V0z"></path>
    <path d="M15.5 14h-.79l-.28-.27c1.2-1.4 1.82-3.31 1.48-5.34-.47-2.78-2.79-5-5.59-5.34-4.23-.52-7.79 3.04-7.27 7.27.34 2.8 2.56 5.12 5.34 5.59 2.03.34 3.94-.28 5.34-1.48l.27.28v.79l4.25 4.25c.41.41 1.08.41 1.49 0 .41-.41.41-1.08 0-1.49L15.5 14zm-6 0C7.01 14 5 11.99 5 9.5S7.01 5 9.5 5 14 7.01 14 9.5 11.99 14 9.5 14z"></path>
  </symbol>
  <symbol xmlns="http://www.w3.org/2000/svg" viewBox="0 0 16 16" id="search-thin">
    <path d="M10.074 10.926c-2.757 0-5-2.243-5-5s2.243-5 5-5 5 2.243 5 5-2.243 5-5 5zm0-9c-2.206 0-4 1.794-4 4s1.794 4 4 4 4-1.794 4-4-1.795-4-4-4z"></path>
    <path d="M1.426 15.074a.5.5 0 0 1-.354-.853l5.465-5.465a.5.5 0 0 1 .707.707L1.78 14.927a.5.5 0 0 1-.354.147z"></path>
  </symbol>
  <symbol xmlns="http://www.w3.org/2000/svg" viewBox="0 0 24 24" id="whatsapp">
    <path d="M22,6.55a12.61,12.61,0,0,0-.1-1.29,4.29,4.29,0,0,0-.37-1.08,3.66,3.66,0,0,0-.71-1,3.91,3.91,0,0,0-1-.71,4.28,4.28,0,0,0-1.08-.36A10.21,10.21,0,0,0,17.46,2H6.55a12.61,12.61,0,0,0-1.29.1,4.29,4.29,0,0,0-1.08.37,3.66,3.66,0,0,0-1,.71,3.91,3.91,0,0,0-.71,1,4.28,4.28,0,0,0-.36,1.08A10.21,10.21,0,0,0,2,6.54C2,6.73,2,7,2,7.08v9.84c0,.11,0,.35,0,.53a12.61,12.61,0,0,0,.1,1.29,4.29,4.29,0,0,0,.37,1.08,3.66,3.66,0,0,0,.71,1,3.91,3.91,0,0,0,1,.71,4.28,4.28,0,0,0,1.08.36A10.21,10.21,0,0,0,6.54,22H17.45a12.61,12.61,0,0,0,1.29-.1,4.29,4.29,0,0,0,1.08-.37,3.66,3.66,0,0,0,1-.71,3.91,3.91,0,0,0,.71-1,4.28,4.28,0,0,0,.36-1.08A10.21,10.21,0,0,0,22,17.46c0-.19,0-.43,0-.54V7.08C22,7,22,6.73,22,6.55ZM12.23,19h0A7.12,7.12,0,0,1,8.8,18.1L5,19.1l1-3.72a7.11,7.11,0,0,1-1-3.58A7.18,7.18,0,1,1,12.23,19Zm0-13.13A6,6,0,0,0,7.18,15l.14.23-.6,2.19L9,16.8l.22.13a6,6,0,0,0,3,.83h0a6,6,0,0,0,6-6,6,6,0,0,0-6-6Zm3.5,8.52a1.82,1.82,0,0,1-1.21.85,2.33,2.33,0,0,1-1.12-.07,8.9,8.9,0,0,1-1-.38,8,8,0,0,1-3.06-2.7,3.48,3.48,0,0,1-.73-1.85,2,2,0,0,1,.63-1.5.65.65,0,0,1,.48-.22H10c.11,0,.26,0,.4.31s.51,1.24.56,1.33a.34.34,0,0,1,0,.31,1.14,1.14,0,0,1-.18.3c-.09.11-.19.24-.27.32s-.18.18-.08.36a5.56,5.56,0,0,0,1,1.24,5,5,0,0,0,1.44.89c.18.09.29.08.39,0s.45-.52.57-.7.24-.15.4-.09,1.05.49,1.23.58.29.13.34.21A1.56,1.56,0,0,1,15.73,14.36Z"></path>
  </symbol>
</svg>